<?xml version="1.0" encoding="iso-8859-1"?>
<!-- Generator: Adobe Illustrator 18.0.0, SVG Export Plug-In . SVG Version: 6.00 Build 0)  -->
<!DOCTYPE svg PUBLIC "-//W3C//DTD SVG 1.1//EN" "http://www.w3.org/Graphics/SVG/1.1/DTD/svg11.dtd">
<svg version="1.1" id="Capa_1" xmlns="http://www.w3.org/2000/svg" xmlns:xlink="http://www.w3.org/1999/xlink" x="0px" y="0px"
	 viewBox="0 0 448 448" style="enable-background:new 0 0 448 448;" xml:space="preserve">
<g>
	<path d="M373.348,124.555h-58.876V106h81.056c8.284,0,15-6.716,15-15V15c0-8.284-6.716-15-15-15H203.417c-8.284,0-15,6.716-15,15
		v76c0,8.284,6.716,15,15,15h81.056v18.555H74.652c-28.358,0-51.43,23.071-51.43,51.43V396.57c0,28.358,23.071,51.43,51.43,51.43
		h298.696c28.358,0,51.43-23.071,51.43-51.43V175.984C424.778,147.626,401.707,124.555,373.348,124.555z M218.417,30h162.111v46
		H218.417V30z M394.778,396.57c0,11.816-9.613,21.43-21.43,21.43H74.652c-11.816,0-21.43-9.613-21.43-21.43V175.984
		c0-11.816,9.613-21.43,21.43-21.43h298.696c11.816,0,21.43,9.613,21.43,21.43V396.57z"/>
	<path d="M206.056,184.444h-114c-5.522,0-10,4.478-10,10v63.11c0,5.522,4.478,10,10,10h114c5.522,0,10-4.478,10-10v-63.11
		C216.056,188.922,211.579,184.444,206.056,184.444z M196.056,247.555h-94v-43.11h94V247.555z"/>
	<path d="M355.945,184.444h-114c-5.522,0-10,4.478-10,10v34.726c0,5.522,4.478,10,10,10h114c5.522,0,10-4.478,10-10v-34.726
		C365.945,188.922,361.467,184.444,355.945,184.444z M345.945,219.17h-94v-14.726h94V219.17z"/>
	<path d="M111.408,277.333H92.056c-5.522,0-10,4.478-10,10s4.478,10,10,10h19.352c5.522,0,10-4.478,10-10
		S116.93,277.333,111.408,277.333z"/>
	<path d="M158.732,277.333h-19.353c-5.522,0-10,4.478-10,10s4.478,10,10,10h19.353c5.522,0,10-4.478,10-10
		S164.254,277.333,158.732,277.333z"/>
	<path d="M206.056,277.333h-19.353c-5.522,0-10,4.478-10,10s4.478,10,10,10h19.353c5.522,0,10-4.478,10-10
		S211.579,277.333,206.056,277.333z"/>
	<path d="M111.408,309.469H92.056c-5.522,0-10,4.478-10,10s4.478,10,10,10h19.352c5.522,0,10-4.478,10-10
		S116.93,309.469,111.408,309.469z"/>
	<path d="M158.732,309.469h-19.353c-5.522,0-10,4.478-10,10s4.478,10,10,10h19.353c5.522,0,10-4.478,10-10
		S164.254,309.469,158.732,309.469z"/>
	<path d="M206.056,309.469h-19.353c-5.522,0-10,4.478-10,10s4.478,10,10,10h19.353c5.522,0,10-4.478,10-10
		S211.579,309.469,206.056,309.469z"/>
	<path d="M111.408,341.604H92.056c-5.522,0-10,4.478-10,10s4.478,10,10,10h19.352c5.522,0,10-4.478,10-10
		S116.93,341.604,111.408,341.604z"/>
	<path d="M158.732,341.604h-19.353c-5.522,0-10,4.478-10,10s4.478,10,10,10h19.353c5.522,0,10-4.478,10-10
		S164.254,341.604,158.732,341.604z"/>
	<path d="M206.056,341.604h-19.353c-5.522,0-10,4.478-10,10s4.478,10,10,10h19.353c5.522,0,10-4.478,10-10
		S211.579,341.604,206.056,341.604z"/>
	<path d="M111.408,373.74H92.056c-5.522,0-10,4.478-10,10s4.478,10,10,10h19.352c5.522,0,10-4.478,10-10
		S116.93,373.74,111.408,373.74z"/>
	<path d="M158.732,373.74h-19.353c-5.522,0-10,4.478-10,10s4.478,10,10,10h19.353c5.522,0,10-4.478,10-10
		S164.254,373.74,158.732,373.74z"/>
	<path d="M206.056,373.74h-19.353c-5.522,0-10,4.478-10,10s4.478,10,10,10h19.353c5.522,0,10-4.478,10-10
		S211.579,373.74,206.056,373.74z"/>
</g>
<g>
</g>
<g>
</g>
<g>
</g>
<g>
</g>
<g>
</g>
<g>
</g>
<g>
</g>
<g>
</g>
<g>
</g>
<g>
</g>
<g>
</g>
<g>
</g>
<g>
</g>
<g>
</g>
<g>
</g>
</svg>
